PathFileType	4	(X/Y/Z)	C:\Users\WrightLab\Desktop\Jo\P2_Trial37.trc
DataRate	CameraRate	NumFrames	NumMarkers	Units	OrigDataRate	OrigDataStartFrame	OrigNumFrames
100.00	100.00	       19	19	mm	100.00	493	       563
Frame#	Time	Headset_Front			Headset_Back			Headset_Left			Headset_Right			Left_Shoulder			Right_Shoulder			Sternum			C7			Left Elbow			Right Elbow			Left Wrist			Right Wrist			Left ASIS			Right ASIS			S2			Left Knee			Right Knee			Left Ankle			Right Ankle			
		X1	Y1	Z1	X2	Y2	Z2	X3	Y3	Z3	X4	Y4	Z4	X5	Y5	Z5	X6	Y6	Z6	X7	Y7	Z7	X8	Y8	Z8	X9	Y9	Z9	X10	Y10	Z10	X11	Y11	Z11	X12	Y12	Z12	X13	Y13	Z13	X14	Y14	Z14	X15	Y15	Z15	X16	Y16	Z16	X17	Y17	Z17	X18	Y18	Z18	X19	Y19	Z19	

493	4.920	-316.08759	1512.43164	2026.32886	-155.26494	1724.49304	1868.58655	-144.33615	1634.26404	2015.83167				-45.42038	1498.97192	2020.46680	-164.67589	1064.48193	2065.17358	-187.55359	1355.05603	1950.23083				91.56243	1173.93591	2131.22827				164.25247	943.53668	2152.91235	-422.02264	890.44702	1791.40491				-252.98898	1037.62024	1964.59082	5.84425	975.45679	1865.52075	-104.78688	503.56134	2180.83667	-174.96466	560.98969	1777.09143	-142.26564	232.06349	2379.15405	-86.99303	133.68062	1780.69531	
494	4.930	-323.16104	1511.07605	2032.10742	-160.90596	1723.32642	1876.00757	-151.36438	1632.66235	2022.52551				-51.17023	1498.37085	2027.98755	-170.10812	1064.40955	2072.73047	-192.77721	1353.57214	1958.10767				85.22970	1173.68542	2141.12720				156.04945	943.12891	2167.58740	-421.53989	885.24860	1797.84985				-257.49185	1036.63232	1971.83264	1.25013	973.94189	1874.47510	-116.81310	505.16940	2187.44263	-178.98987	559.27374	1780.79297	-160.15741	236.64247	2387.41895	-88.17553	131.98369	1782.07727	
495	4.940	-329.86591	1508.79846	2037.37317	-166.45982	1721.91528	1882.96179	-158.18562	1631.17468	2029.84729				-57.58163	1497.41333	2036.39600	-176.19881	1063.44006	2077.90601	-198.29915	1352.38110	1965.37634				77.53504	1173.97083	2152.48975				147.02962	943.65198	2181.84961	-421.01105	880.91180	1798.31372				-262.32178	1035.19885	1977.49146	-2.94546	973.41449	1882.44324	-126.99386	506.31790	2193.40137	-184.13445	557.83490	1783.63049	-178.28539	238.23512	2392.61157	-89.18777	131.60890	1784.66479	
496	4.950	-336.59592	1507.57104	2042.44299	-172.16011	1720.83679	1889.76257	-165.59415	1630.04810	2037.37073				-64.40989	1496.38892	2043.60156	-182.41600	1063.36230	2085.42090	-204.19666	1351.39673	1971.54419				69.97878	1173.80273	2163.07153				137.88223	943.57532	2195.87842	-419.95190	875.60248	1800.92334				-267.94287	1034.99670	1983.70679	-7.07888	973.06561	1890.32141	-134.46275	507.76215	2198.66650	-187.32294	555.82935	1786.29065	-194.13322	239.38469	2398.97876	-89.25357	130.78520	1785.56824	
497	4.960	-343.73248	1506.34180	2047.97058	-177.88667	1719.75537	1898.58691	-172.19307	1628.91040	2044.61902				-71.12553	1495.75415	2051.98462	-190.23698	1063.32922	2091.68115	-209.37784	1350.30225	1978.46228				62.38354	1173.64429	2173.11768				128.73474	943.38458	2208.89209	-419.26797	872.44305	1801.96765				-273.08264	1035.14294	1990.87219	-10.89656	973.01581	1898.36365	-141.36963	510.43243	2208.05029	-190.38002	553.20520	1792.36316	-211.19370	240.26871	2404.21021	-91.01805	130.17447	1787.27905	
498	4.970	-350.31558	1504.23755	2052.89136				-179.64394	1627.65100	2051.85498				-77.66028	1495.45020	2060.61304	-197.07211	1063.89099	2098.79639	-215.28880	1349.42700	1985.86243				54.49165	1173.17920	2183.27197				118.33408	944.09430	2223.69336	-417.42096	867.67920	1802.65918				-279.26889	1034.46082	1996.02869	-14.55352	971.94214	1911.40674	-148.24554	510.68265	2215.31641	-194.23767	553.67505	1793.62805	-228.16281	240.80266	2409.73755	-92.41917	128.62869	1788.87659	
499	4.980	-189.06798	1717.87817	1912.36279				-186.26569	1626.84180	2058.77246				-84.69521	1494.02319	2067.45337	-205.31757	1063.32654	2106.17725	-221.17281	1348.38477	1991.10242				46.07380	1173.01660	2194.44287				107.76211	944.03577	2237.44604	-415.98743	863.22516	1803.09106				-285.06479	1034.27502	2002.28357	-18.57177	971.89417	1923.02014	-155.52406	511.05988	2223.73682	-198.13754	552.51013	1794.05798	-245.71991	240.08763	2412.25000	-95.68576	127.86729	1790.54773	
500	4.990	-193.70697	1716.96411	1919.30762				-193.51990	1625.58118	2065.98560				-92.24708	1493.72681	2076.42432	-214.00653	1062.92651	2112.86475	-227.10251	1347.48584	1998.69360				37.88111	1173.31372	2205.42627				96.87853	943.74054	2251.18750	-413.41577	858.26697	1803.09351				-291.46692	1033.01392	2006.49707	-22.42301	969.77637	1936.25256	-162.57904	510.67413	2233.62256	-201.54295	551.60699	1797.44092	-262.03226	240.34531	2415.79956	-97.27479	127.27438	1791.17725	
501	5.000	-198.16000	1715.00012	1926.47583				-200.17250	1624.45618	2073.00635				-99.91906	1492.56177	2084.84888	-222.77518	1062.03711	2120.08350	-234.23460	1346.95801	2005.64026				28.92071	1172.71790	2216.30127				85.33617	944.07074	2264.76709	-411.51013	854.41943	1807.21521				-299.77930	1029.43677	2008.56885	-26.86214	968.74054	1947.98352	-170.03630	508.72589	2242.24609	-204.46313	550.93793	1800.49670	-279.06705	239.96341	2419.09985	-100.44027	127.05985	1793.59509	
502	5.010	-202.73251	1714.43970	1933.73645				-207.02322	1623.14697	2079.38110				-107.59075	1491.95972	2093.21680	-231.41418	1061.30640	2128.01660	-240.47029	1346.71436	2013.46326				19.14781	1172.38977	2227.34009				74.11350	944.26550	2279.08545	-408.56573	850.72131	1803.69714				-302.77582	1027.98926	2013.69153				-178.04541	505.98489	2251.68115	-207.50066	550.21979	1804.85059	-295.74060	240.15361	2422.23438	-103.37736	125.42918	1794.51404	
503	5.020							-214.10051	1622.42004	2086.54321				-115.55334	1491.19812	2102.74976	-240.17963	1059.79822	2135.57153	-246.72707	1344.88928	2019.00476				9.37622	1172.52307	2239.16260				61.98699	943.31702	2292.09839	-405.75003	846.01501	1806.14734				-302.59006	1026.70959	2010.93335				-185.45680	502.89294	2260.41357	-210.27704	549.20197	1808.04578	-312.04544	238.75775	2422.65845	-106.84264	126.08130	1798.28979	
504	5.030	-210.93300	1712.44788	1947.28284				-220.94485	1621.85083	2093.19263				-123.46633	1490.63989	2110.77832	-249.65297	1058.34180	2143.15796	-252.98639	1344.12402	2026.07690				-0.66083	1171.97473	2250.12109				49.42734	944.20453	2306.73096	-402.35641	842.56171	1802.33521				-318.56528	1029.65344	2030.56519				-193.57101	498.78992	2268.44580	-213.35464	549.39832	1812.18469	-328.19269	236.76505	2424.03052	-109.53304	124.71634	1798.32666	
505	5.040							-228.25848	1621.77344	2099.92847				-132.02425	1490.72400	2121.06958	-258.87570	1056.88440	2149.96289	-260.02145	1343.97009	2032.44910				-11.42238	1171.85486	2262.34814				36.82854	942.89105	2318.50806	-399.47394	839.82788	1806.43335				-325.18616	1028.46814	2036.33374				-201.14722	494.81693	2277.78809	-216.40361	549.41016	1815.27686	-343.56900	234.81902	2425.94092	-112.90636	125.41730	1802.21887	
506	5.050	-219.77385	1712.13159	1960.34106				-235.76114	1622.09204	2106.54150				-140.34650	1490.05029	2129.38818	-268.16968	1055.44751	2157.50391	-266.24994	1343.97803	2038.99072				-23.42238	1171.92163	2274.96606				23.41003	942.38513	2332.17725	-395.59512	835.80963	1807.08289				-332.31787	1026.68811	2041.51160				-208.67163	489.76248	2285.17773	-219.13821	549.22266	1819.81140	-358.24631	231.03473	2425.13428	-115.34131	125.04789	1802.69373	
507	5.060							-243.48112	1622.43958	2113.34131				-149.35117	1489.95459	2138.48193	-277.41299	1054.00952	2165.16357	-273.83624	1344.16846	2045.19458				-34.94803	1171.93799	2286.52319				9.69663	942.24756	2345.26709	-391.80234	832.99701	1805.55933				-338.64423	1027.53638	2048.41846				-215.87379	486.85757	2293.44263	-222.48134	550.09540	1824.15869	-372.03934	228.42577	2426.03027	-118.41878	125.97772	1807.47742	
508	5.070	-227.33260	1711.55017	1973.02502				-251.02948	1622.89307	2119.72925				-158.29628	1491.04382	2147.86670	-286.31403	1052.99707	2171.43286	-280.62485	1343.48413	2050.19702				-47.74721	1172.06519	2299.13086				-5.01931	942.53290	2359.00024	-388.09299	831.21490	1807.64734				-344.81967	1026.36560	2053.11670				-222.75743	486.16229	2300.31006	-225.25540	550.24701	1828.86267	-385.25146	222.81866	2423.87402	-120.67396	126.98113	1810.04504	
509	5.080	-231.40233	1711.85327	1980.36194				-258.88773	1624.05017	2126.26147				-167.27652	1491.61377	2155.68945	-294.79874	1052.52649	2177.73975	-287.74332	1344.55359	2057.48193				-61.59116	1172.61182	2311.76758				-20.16444	942.28601	2371.82520	-384.83582	831.11578	1804.99561										-228.74870	488.02872	2307.98804	-228.10139	550.81512	1833.35034	-397.36331	219.87550	2422.36646	-121.98562	127.30672	1811.27454	
510	5.090	-235.95392	1713.18384	1986.89307				-267.54208	1626.20789	2132.73169				-176.99286	1493.38611	2164.50000	-301.46451	1052.76941	2183.52832	-293.83524	1344.82813	2062.38330				-75.60817	1172.88855	2323.37939	-68.00677	973.91229	2044.47546	-35.71397	941.72046	2383.82275	-379.16150	827.31793	1813.31384										-234.72902	492.52374	2315.82837	-231.24065	551.35596	1840.16040	-407.03024	215.88315	2418.55225	-125.09159	128.23643	1813.45349	
511	5.100	-241.08716	1715.52722	1994.22180				-276.12033	1628.11133	2138.59570				-186.36813	1495.36194	2172.34326	-307.56085	1054.96997	2189.61206	-300.14740	1346.45935	2066.90967				-91.26054	1174.74036	2336.00586	-74.21079	975.95551	2057.45898	-52.03408	942.93030	2397.49951	-374.94693	829.22424	1811.94324										-242.20845	498.76788	2324.18921	-233.57201	552.26086	1848.60547	-416.03754	213.24803	2413.60547	-126.94783	130.43533	1817.29224	
